<svg xmlns="http://www.w3.org/2000/svg" viewBox="0 0 24 24">
<!-- Cognitive Bias Explorer icon -->
<style>:root{--ink:#191c21;--tmi:#16827d;--nem:#2f5fb3;--fast:#5a8a17;--mem:#7f766a}@media (prefers-color-scheme:dark){:root{--ink:#e8ebe6;--tmi:#4cc3bb;--nem:#86a9f0;--fast:#a2d05a;--mem:#b9af9f}}</style>
<circle cx="8.2" cy="7.6" r="5" style="fill:var(--ink)"/><circle cx="5.4" cy="11.2" r="4.8" style="fill:var(--ink)"/><circle cx="9.6" cy="11.8" r="5.3" style="fill:var(--ink)"/><circle cx="6.4" cy="15.6" r="4.7" style="fill:var(--ink)"/><circle cx="10.2" cy="17.4" r="4.4" style="fill:var(--ink)"/><circle cx="15.8" cy="7.6" r="5" style="fill:var(--ink)"/><circle cx="18.6" cy="11.2" r="4.8" style="fill:var(--ink)"/><circle cx="14.4" cy="11.8" r="5.3" style="fill:var(--ink)"/><circle cx="17.6" cy="15.6" r="4.7" style="fill:var(--ink)"/><circle cx="13.8" cy="17.4" r="4.4" style="fill:var(--ink)"/><circle cx="8.2" cy="7.6" r="3.9" style="fill:var(--tmi)"/><circle cx="5.4" cy="11.2" r="3.7" style="fill:var(--tmi)"/><circle cx="9.6" cy="11.8" r="4.2" style="fill:var(--tmi)"/><circle cx="6.4" cy="15.6" r="3.6" style="fill:var(--fast)"/><circle cx="10.2" cy="17.4" r="3.3" style="fill:var(--fast)"/><circle cx="15.8" cy="7.6" r="3.9" style="fill:var(--nem)"/><circle cx="18.6" cy="11.2" r="3.7" style="fill:var(--nem)"/><circle cx="14.4" cy="11.8" r="4.2" style="fill:var(--nem)"/><circle cx="17.6" cy="15.6" r="3.6" style="fill:var(--mem)"/><circle cx="13.8" cy="17.4" r="3.3" style="fill:var(--mem)"/><g fill="none" stroke="#2a2320" stroke-width="1.2" stroke-linecap="round"><path d="M12 3.4V8M12 18.6V21M5.2 9.6Q7 9.4 7.6 11M6.4 17.4Q7.6 16.2 9 16.8M18.8 9.6Q17 9.4 16.4 11M17.6 17.4Q16.4 16.2 15 16.8"/><path d="M10.3 14.6Q12 16.3 13.7 14.6" stroke-width="1.4"/></g><circle cx="9.7" cy="12.4" r="1.1" fill="#2a2320"/><circle cx="14.3" cy="12.4" r="1.1" fill="#2a2320"/>
</svg>
